<?xml version="1.0" encoding="utf-8"?>
<!-- Generator: Adobe Illustrator 22.0.1, SVG Export Plug-In . SVG Version: 6.00 Build 0)  -->
<svg version="1.1" id="Layer_1" xmlns="http://www.w3.org/2000/svg" xmlns:xlink="http://www.w3.org/1999/xlink" x="0px" y="0px"
	 viewBox="0 0 72.8 83.4" style="enable-background:new 0 0 72.8 83.4;" xml:space="preserve">
<g>
	<path d="M-106.8,57.9c-0.8,0-1.7-0.7-1.7-1.7v-79c0-1.1,0.9-1.7,1.7-1.7c0.3,0,0.6,0.1,0.8,0.2l68.4,39.5c0.5,0.3,0.9,0.9,0.9,1.5
		s-0.3,1.2-0.9,1.5l-68.4,39.5C-106.2,57.8-106.5,57.9-106.8,57.9C-106.8,57.9-106.8,57.9-106.8,57.9z"/>
	<path d="M-106.8-24c0.2,0,0.4,0.1,0.6,0.2l68.4,39.5c0.5,0.3,0.6,0.8,0.6,1s-0.1,0.7-0.6,1l-68.4,39.5c-0.2,0.1-0.4,0.2-0.6,0.2
		c-0.6,0-1.2-0.5-1.2-1.2v-79C-108-23.5-107.4-24-106.8-24 M-106.8-25c-1.2,0-2.2,0.9-2.2,2.2v79c0,1.3,1.1,2.2,2.2,2.2
		c0.4,0,0.7-0.1,1.1-0.3l68.4-39.5c1.5-0.8,1.5-3,0-3.8l-68.4-39.5C-106-24.9-106.4-25-106.8-25L-106.8-25z"/>
</g>
<g>
	<rect x="8.1" y="1.7" width="19.9" height="78.9"/>
	<path d="M27.4,2.3v77.8H8.6V2.3H27.4 M28.5,1.2h-21v80h21V1.2L28.5,1.2z"/>
</g>
<g>
	<rect x="44.1" y="1.7" width="19.9" height="78.9"/>
	<path d="M63.4,2.3v77.8H44.6V2.3H63.4 M64.5,1.2h-21v80h21V1.2L64.5,1.2z"/>
</g>
</svg>
