<?xml version="1.0" encoding="utf-8"?>
<!-- Generator: Adobe Illustrator 22.0.1, SVG Export Plug-In . SVG Version: 6.00 Build 0)  -->
<svg version="1.1" id="Layer_1" xmlns="http://www.w3.org/2000/svg" xmlns:xlink="http://www.w3.org/1999/xlink" x="0px" y="0px"
	 viewBox="0 0 72.8 83.4" style="enable-background:new 0 0 72.8 83.4;" xml:space="preserve">
<g>
	<path d="M2.2,82.9c-0.8,0-1.7-0.7-1.7-1.7v-79c0-1.1,0.9-1.7,1.7-1.7c0.3,0,0.6,0.1,0.8,0.2l68.4,39.5c0.5,0.3,0.9,0.9,0.9,1.5
		s-0.3,1.2-0.9,1.5L3.1,82.7C2.8,82.8,2.5,82.9,2.2,82.9C2.2,82.9,2.2,82.9,2.2,82.9z"/>
	<path d="M2.2,1c0.2,0,0.4,0.1,0.6,0.2l68.4,39.5c0.5,0.3,0.6,0.8,0.6,1s-0.1,0.7-0.6,1L2.8,82.2c-0.2,0.1-0.4,0.2-0.6,0.2
		c-0.6,0-1.2-0.5-1.2-1.2v-79C1,1.5,1.6,1,2.2,1 M2.2,0C1.1,0,0,0.9,0,2.2v79c0,1.3,1.1,2.2,2.2,2.2c0.4,0,0.7-0.1,1.1-0.3
		l68.4-39.5c1.5-0.8,1.5-3,0-3.8L3.3,0.3C3,0.1,2.6,0,2.2,0L2.2,0z"/>
</g>
<g>
	<rect x="-161.9" y="91.7" width="19.9" height="78.9"/>
	<path d="M-142.6,92.3v77.8h-18.8V92.3H-142.6 M-141.5,91.2h-21v80h21V91.2L-141.5,91.2z"/>
</g>
<g>
	<rect x="-125.9" y="91.7" width="19.9" height="78.9"/>
	<path d="M-106.6,92.3v77.8h-18.8V92.3H-106.6 M-105.5,91.2h-21v80h21V91.2L-105.5,91.2z"/>
</g>
</svg>
